<?xml version="1.0" encoding="utf-8"?>
<!-- Generator: Adobe Illustrator 28.1.0, SVG Export Plug-In . SVG Version: 6.00 Build 0)  -->
<svg version="1.1" id="smile_x5F_image" xmlns="http://www.w3.org/2000/svg" xmlns:xlink="http://www.w3.org/1999/xlink" x="0px"
	 y="0px" viewBox="0 0 314.2 337.6" style="enable-background:new 0 0 314.2 337.6;" xml:space="preserve">
<style type="text/css">
	.st0{fill:#E5E5E5;}
	.st1{font-family:'ArialMT';}
	.st2{font-size:24px;}
</style>
<g id="background_00000138562603145100726370000002882774996618299560_">
</g>
<path id="circle" class="st0" d="M78,30.9L78,30.9c28.9,0,52.3,23.4,52.3,52.3l0,0c0,28.9-23.4,52.3-52.3,52.3l0,0
	c-28.9,0-52.3-23.4-52.3-52.3l0,0C25.6,54.3,49.1,30.9,78,30.9z"/>
<circle id="left_x5F_eye" cx="69.7" cy="67.2" r="5.8"/>
<circle id="right_x5F_eye" cx="101.3" cy="67.2" r="5.8"/>
<path id="smile" d="M101.9,81.6c1.9,1.8-4.5,20-16.2,19.8C74.4,101.2,68.1,84.1,70,82.2c1.4-1.3,6.6,5.6,15.7,5.5
	C95.1,87.7,100.5,80.2,101.9,81.6L101.9,81.6z"/>
<text id="Smile_x5F_text" transform="matrix(1 0 0 1 47.9347 181.3158)" class="st1 st2">Smile</text>
</svg>
