<?xml version="1.0" encoding="UTF-8"?>
<svg id="Layer_2" data-name="Layer 2" xmlns="http://www.w3.org/2000/svg" viewBox="0 0 314.18 337.65">
  <defs>
    <style>
      .cls-1 {
        fill: #231f20;
        font-family: ArialMT, Arial;
        font-size: 41px;
      }

      .cls-2, .cls-3 {
        stroke-width: 0px;
      }

      .cls-3 {
        fill: #e5e5e5;
      }
    </style>
  </defs>
  <rect class="cls-3" x="0" y="35.18" width="279" height="279" rx="139.5" ry="139.5"/>
  <circle class="cls-2" cx="97.38" cy="131.97" r="15.38"/>
  <circle class="cls-2" cx="181.62" cy="131.97" r="15.38"/>
  <path class="cls-2" d="M183.18,170.2c5.19,4.86-11.88,53.27-43.09,52.87-30.22-.39-46.97-46.19-41.77-51.22,3.72-3.59,17.49,14.84,41.77,14.75,25.1-.09,39.37-19.9,43.09-16.41Z"/>
  <text class="cls-1" transform="translate(111.39 37.36) rotate(-5.98)"><tspan x="0" y="0">S</tspan></text>
  <text class="cls-1" transform="translate(137.22 34.15) rotate(6.06)"><tspan x="0" y="0">m</tspan></text>
  <text class="cls-1" transform="translate(170.03 38.49) rotate(14.59)"><tspan x="0" y="0">i</tspan></text>
  <text class="cls-1" transform="translate(178.42 40.66) rotate(18.19)"><tspan x="0" y="0">l</tspan></text>
  <text class="cls-1" transform="translate(186.52 42.88) rotate(24.47)"><tspan x="0" y="0">e</tspan></text>
  <text class="cls-1" transform="translate(206.42 52.26) rotate(31.16)"><tspan x="0" y="0"> </tspan></text>
  <text class="cls-1" transform="translate(215.7 57.79) rotate(36.03)"><tspan x="0" y="0">-</tspan></text>
  <text class="cls-1" transform="translate(226.26 65.49) rotate(40.87)"><tspan x="0" y="0"> </tspan></text>
  <text class="cls-1" transform="translate(234.59 71.94) rotate(48.34)"><tspan x="0" y="0">S</tspan></text>
  <text class="cls-1" transform="translate(252.28 91.08) rotate(60.27)"><tspan x="0" y="0">m</tspan></text>
  <text class="cls-1" transform="translate(267.95 120.23) rotate(68.75)"><tspan x="0" y="0">i</tspan></text>
  <text class="cls-1" transform="translate(271.11 128.31) rotate(72.34)"><tspan x="0" y="0">l</tspan></text>
  <text class="cls-1" transform="translate(274.05 136.17) rotate(78.65)"><tspan x="0" y="0">e</tspan></text>
  <text class="cls-1" transform="translate(278.09 157.79) rotate(85.36)"><tspan x="0" y="0"> </tspan></text>
  <text class="cls-1" transform="translate(279.32 168.32) rotate(92.07)"><tspan x="0" y="0">a</tspan></text>
  <text class="cls-1" transform="translate(278.62 190.08) rotate(101.03)"><tspan x="0" y="0">n</tspan></text>
  <text class="cls-1" transform="translate(274.54 211.46) rotate(110.05)"><tspan x="0" y="0">d</tspan></text>
  <text class="cls-1" transform="translate(266.74 232) rotate(116.76)"><tspan x="0" y="0"> </tspan></text>
  <text class="cls-1" transform="translate(262.5 241.68) rotate(124.31)"><tspan x="0" y="0">S</tspan></text>
  <text class="cls-1" transform="translate(248.23 263.45) rotate(136.2)"><tspan x="0" y="0">m</tspan></text>
  <text class="cls-1" transform="translate(223.74 285.77) rotate(144.57)"><tspan x="0" y="0">i</tspan></text>
  <text class="cls-1" transform="translate(216.68 290.81) rotate(148.11)"><tspan x="0" y="0">l</tspan></text>
  <text class="cls-1" transform="translate(209.78 295.59) rotate(154.34)"><tspan x="0" y="0">e</tspan></text>
</svg>